<svg version="1.1" id="Layer_1" xmlns="http://www.w3.org/2000/svg" x="0px" y="0px" width="612px" height="792px" viewBox="0 0 612 792" enable-background="new 0 0 612 792" xml:space="preserve">
	<g>
		<polygon fill-rule="evenodd" clip-rule="evenodd" fill="#FFFFFF" points="209,300 401.756,300 401.756,492.756 209,492.756 209,300"/>
		<path fill-rule="evenodd" clip-rule="evenodd" d="M328.685,325.568c0.43,0.177,0.683,0.707,1.263,0.505
			c3.23-4.695,7.774-9.946,13.884-10.349c0.505,0.58,0.505,1.186,0,1.767c-1.667,1.035-3.762,0.984-5.302,2.272
			c-1.59-0.126-2.423,1.616-3.786,2.02c-1.061,1.868-3.483,2.827-3.534,4.796c3.862-4.014,8.987-7.825,15.146-6.563
			c0.252,0.429,1.034,0.631,0.757,1.262c-2.045,1.464-5.2,0.303-7.573,1.01c-2.827,0.984-5.654,1.944-7.824,4.543
			c1.034,0.404,2.12-0.605,3.028-1.262c3.988-1.337,9.214-1.944,12.874,0.505c0.126,0.657-0.051,1.666-1.01,1.262
			c-4.064-1.515-9.214-2.65-13.126,0c0.884,1.136,2.297,2.045,3.786,2.271c2.853,1.843,5.73,4.241,8.078,6.816v0.505
			c8.026,7.926,11.384,20.119,7.572,31.301c-1.716,3.837-3.534,7.624-6.059,11.107c2.65,2.146,4.595,4.342,6.312,7.068
			c1.187,3.206,1.969,7.497,0,10.602c-0.328,1.615,1.438,1.918,1.767,3.029c1.943,1.438,2.6,3.407,4.039,5.048
			c0.403,1.868,2.146,3.206,2.02,5.301c2.701,6.135,2.348,14.439,1.262,21.204c-1.438,3.711-2.095,7.725-4.291,11.107
			c-1.212,1.362-1.615,2.877-3.029,4.038c1.263,0.43,2.524-0.681,3.786-1.01c6.917-1.211,14.01,0.253,17.67,6.059
			c5.428,6.387,2.903,16.08-0.757,22.466c-0.43,0.581-1.389,0.96-1.263,1.768c-2.322,2.397-5.225,4.417-8.077,6.058
			c-2.802,0.43-5.175,1.843-8.078,2.02c-7.926,0.631-15.095-0.555-21.203-4.291c-1.717-1.187-3.282-2.701-5.049-3.786
			c-1.363-1.742-2.449-3.585-3.282-5.554c-1.161-1.187-2.953-0.808-4.291-1.515c-4.266-2.348-5.806,3.408-10.097,1.767
			c-3.206,0.43-5.427-1.438-7.573-3.533c0.278-0.631-0.505-0.833-0.757-1.263c-1.59,0.935-2.979,2.398-4.796,2.777
			c-2.247,1.034-4.948,1.641-7.573,1.01c-3.206-0.253-3.938-4.897-7.825-3.534c-2.045-0.984-4.089-1.994-5.806-3.787
			c-2.701-0.605-4.594-3.104-5.553-5.553c-2.499,0.303-4.19-1.313-6.059-2.524c-0.656-0.379-0.656-2.271-1.767-1.262
			c-3.054,3.331-8.532,4.038-12.874,2.523c-5.958-1.969-11.485-7.851-12.369-14.136c-2.827-0.328-4.165-2.6-6.311-4.544
			c-0.479-1.792-2.575-2.928-2.272-5.048c-2.751-6.084-1.742-14.363,2.524-19.438c1.414-1.438,3.029-2.322,5.048-2.271
			c0.53,0.782,1.616,0.228,2.272,0.757c2.499,1.54,4.544,4.897,7.825,3.787c1.212-4.09,5.226-6.563,8.835-8.078
			c-2.994-5.771,1.851-5.247,0.505-10.602c-0.202-2.751,2.02-4.72,4.039-6.311c-0.934-1.212-0.909-3.105-0.505-4.544
			c0.959-2.953,4.114-4.872,6.815-5.806c-0.833-2.6-2.449-4.897-2.524-7.825c-2.524-9.87,1.767-18.781,6.059-26.757
			c-0.379-1.691,2.625-2.575,1.262-4.039c-4.897-1.414-9.794,0.202-13.379,3.534c-0.177,0.455-0.682,0.177-1.01,0.252
			c-0.454-0.252-0.177-0.833-0.252-1.262c2.398-2.953,5.755-3.61,9.087-4.292c2.272,0.126,4.367,0.631,6.311,1.515
			c0.126-0.151,0.329-0.278,0.252-0.505c-1.666-1.438-3.963-1.313-5.806-2.272c-3.509-1.085-6.387,0.833-9.592,1.262
			c-0.454-0.252-0.177-0.833-0.252-1.262c3.837-2.701,8.86-1.438,12.874,0c1.11,0.152,1.918,1.868,3.029,1.262
			c-3.559-3.862-8.633-5.099-14.136-4.796c-0.404-1.187,1.01-1.187,1.515-1.767c3.963-0.353,7.093,1.313,10.097,3.282
			c1.287,0.833,2.348,2.196,3.534,3.281l2.272-2.524c-2.373-1.439-5.023-2.171-7.32-3.786c-2.398-2.398-5.755-5.907-4.039-9.845
			c1.59-2.398,3.61-3.307,5.806-4.796c5.25-1.59,12.419-2.449,17.669-0.252c0.581-3.004,1.515-6.058,4.544-7.825
			c10.35-3.913,21.355,0.732,28.271,8.583C325.934,320.822,327.574,323.069,328.685,325.568L328.685,325.568z"/>
		<path fill-rule="evenodd" clip-rule="evenodd" fill="#FFFFFF" d="M315.812,312.947c0.556,0.681,1.236,1.11,2.02,1.262
			c2.953,2.222,6.563,5.503,7.825,9.088c1.691,0.934,0.707,3.206,2.776,3.786l-1.01,1.01c0.505,1.211,1.792,0.581,2.524,1.262
			c-0.909-0.126-1.666,0.126-2.271,0.757c1.211,2.07,3.686,1.085,5.048,2.777h0.505c-1.438-0.378-3.509-1.514-4.796,0
			c1.565,1.187,3.257,2.121,5.049,2.777c-1.489-0.354-3.408-1.893-4.797-0.252c1.667,2.322,4.646,1.439,6.312,3.787
			c0.631-0.278,0.833,0.504,1.262,0.757c0.858-0.681-0.479-1.691-0.757-2.524c-0.404-0.606-1.01-0.682-1.515-1.01v-0.252
			c1.438,0.833,2.751,1.943,4.291,2.524l0.505-0.504c-0.884-1.944-3.257-3.458-5.049-4.796h0.505c1.717,1.59,3.534,2.928,5.554,3.787
			c0.757-0.505-0.379-0.858,0-1.515c-1.641-0.707-2.045-2.827-3.786-3.282c1.817,0.48,2.979,2.55,4.796,3.029
			c-0.101,0.354,0.328,0.505,0.505,0.757c0.277-0.303,0.656-0.53,0.505-1.01l2.271,2.272c-0.757-0.177-1.363-0.707-2.271-0.505
			l-0.505,0.505c1.035,1.641,2.751,1.641,3.786,3.282c-1.262-0.429-2.524-2.348-3.786-1.263c1.262,1.691,3.055,3.155,3.786,5.049
			c-1.061-1.035-2.02-2.322-3.534-2.272l-0.505,0.505c2.752,2.701,3.66,6.614,6.311,9.592c1.137-1.11,0-2.524,0-3.787
			c0.151,1.313,1.717,2.07,1.515,3.534l0.505,0.505c0.935-1.515,0.682-3.231,0-4.796c0.202,1.59,1.565,2.701,1.768,4.291
			c0.354,0.101,0.505-0.328,0.757-0.505v-0.505l0.758,3.029c-0.152-0.53-0.732-1.111-1.263-1.262
			c-1.211,1.01,0.202,2.196-0.252,3.534c-0.151-0.53-0.732-1.111-1.263-1.263c-1.01,1.363-0.126,3.535-0.757,5.049
			c0.328-1.06-0.43-1.918-1.263-2.272c-0.354-0.101-0.505,0.329-0.757,0.505c0.303,3.534-0.556,6.892-0.253,10.097
			c1.086-0.858,2.096-2.221,2.02-3.786l-0.757,5.048l0.505,0.505c0.707-0.051,0.682-0.833,1.01-1.262c0,1.01-1.136,2.398,0,3.029
			l0.252-0.252c-0.631,0.631-2.02,1.792-2.524,2.02c0.455-0.252,0.177-0.833,0.253-1.262l-0.505-0.505
			c-1.363,1.06-2.07,2.625-3.281,3.534c0.177-1.01,1.842-2.02,0.505-3.029h-0.505c-1.742,2.65-4.695,5.048-6.815,7.32
			c0.429,1.11,1.187,0.025,1.767,0h0.505c-0.682,0.581-1.717,0.808-2.02,1.767c0.43,0.454,1.187,0.176,1.767,0.252
			c-0.58,0.429-1.287,0.58-1.767,1.262l0.252,0.252c0.051,0.631-0.681,0.505-1.009,0.757c0.328-0.151,0.252-0.479,0.252-0.757
			c-1.287-0.328-2.676,0.556-4.039,0.757c0.479-0.177,0.858-0.631,1.263-1.009c0.075-0.354-0.076-0.833-0.505-0.758
			c-1.263-0.252-1.944,0.934-3.282,0.505c0.152-0.505,0.96-1.11,0-1.514h-2.523l0.252-0.252c-0.605-1.59-1.843-0.177-2.776-0.252
			l-0.505,0.505c0.303,0.277,0.53,0.656,1.01,0.505c-0.53-0.076-0.959,0.05-1.263,0.504c0.328,0.253,0.556,0.783,1.01,0.758v0.252
			c-0.328-0.076-0.833,0.202-1.01-0.252l-0.505,0.505l1.01,0.757c-0.656-0.833-2.095,1.162-3.281-0.252l-0.505-0.504l-0.505,0.504
			c0.404,0.707,1.136,1.717,2.02,1.767v0.505c-1.086,0.126-1.843-1.262-2.776-0.757c0.681,1.313,2.019,2.146,3.533,2.02
			c0.253-0.328,0.783-0.556,0.758-1.01c4.973,1.767,10.4,0.126,14.893-1.515c1.591-1.11,3.357-1.767,4.797-3.281
			c0.808,0.025,1.438-0.909,1.767-1.515c0.631-0.278,0.833,0.505,1.262,0.757c-0.277,0-0.605-0.076-0.757,0.252
			c0.404,1.11,1.338,2.019,2.02,3.029c-0.556-0.53-1.035-1.161-1.767-1.262c-0.632,0.277-0.657,1.11-0.253,1.514
			c1.313,2.272,2.6,4.569,2.776,7.32c-0.808-2.247-1.388-5.023-4.038-6.058l-0.758,0.757c1.01,2.6,3.155,4.746,3.029,7.825
			c-0.631-1.994-0.959-4.771-3.534-5.301c-1.287,1.868,1.287,3.433,1.515,5.301c0.102,1.388,0.631,2.802,1.767,3.534
			c0.935-0.606,0.328-1.843,0.505-2.777c0.328,0.682,0.304,1.514,1.01,2.019l1.01-0.757c-0.101,0.354,0.328,0.505,0.505,0.757
			c0.707-0.126,0.935-0.908,1.01-1.514c-0.201,1.363,0.556,1.666,1.01,2.777c-0.555,0.024-1.187-0.127-1.515,0.505
			c0.657,1.716,2.929,1.641,3.282,3.533c-0.657-0.681-1.288-1.388-2.272-1.262c-0.277,0.303-0.656,0.53-0.505,1.01
			c3.66,3.231,5.049,7.623,7.573,11.106c0.379-0.757,0.379-2.02,0-2.776c0.631,0.732-0.277,2.07,1.01,2.524l0.757-1.01
			c-0.454-0.253-0.177-0.833-0.252-1.263c0.605,1.035,0.328,2.424,0.757,3.534c-0.303-0.328-0.757-0.328-1.01-0.757l-0.505,0.505
			c0.253,0.833,0.505,1.691,0.758,2.524l-1.01-1.01c-1.691,0.731,0.051,2.372-0.505,3.786c0-0.808-0.884-1.464-1.515-1.767
			c-1.212,1.262,0.201,2.7-0.252,4.291c-0.076-0.833-0.707-1.691-1.515-2.02c-1.212,2.196,0.201,4.544-0.253,7.068
			c-0.076,0.53,0.051,0.959,0.505,1.262c1.187-0.228,0.833-1.515,1.263-2.271c-0.076,1.06,0.101,2.02,0.757,2.776
			c1.161-0.605,0.884-1.843,1.262-2.776c0.076,1.01-0.202,2.171,0.253,3.029l1.01-1.01c0.075,0.58-0.202,1.337,0.252,1.767
			c0.354,0.101,0.505-0.328,0.758-0.505v-0.505l-0.505,2.271c0.101-0.354-0.328-0.505-0.505-0.757
			c-0.732,0.605-1.237,1.287-1.01,2.271c0.151-0.479-0.228-0.707-0.505-1.01c-0.454-0.025-0.682,0.505-1.01,0.758
			c-0.984,3.66-3.029,6.891-4.544,10.35c1.11,0.252,2.348-1.263,3.029-2.272v-0.252c-0.101,1.389-1.615,2.171-1.767,3.534
			l0.505,0.505c0.252-0.178,0.403-0.606,0.757-0.505l-0.757,1.515l-0.758-0.758c-1.287,0.959-0.984,2.575-2.271,3.534
			c0.403-0.707,0.984-1.313,0.757-2.272c-0.252-0.177-0.403-0.605-0.757-0.504c-0.758,0.429-0.656,1.187-1.01,1.767
			c-1.111,0.908-2.02,2.348-3.029,3.534c0.53-1.161,2.02-2.524,0.757-3.787c-1.691,0.177-1.313,2.07-2.776,2.777
			c0-0.758,1.136-1.666,0-2.272c-1.919,1.187-2.271,3.434-4.291,4.797l-0.253,1.262c-2.751,0.556-5.376,1.389-7.572,3.281
			c-3.459,2.575-5.756,6.968-5.806,11.612c-2.575-0.379-5.958-2.701-8.078,0.252c-3.963,1.59-8.684,0.556-11.864-2.02l-1.262-2.524
			c-3.661,2.651-7.295,5.302-12.369,4.544c-2.044-0.959-4.569-1.868-4.796-4.544c-1.035-4.896,2.271-8.658,5.553-11.106
			c-0.757-0.682-1.515,0.177-2.272,0.253c-2.953,2.321-4.872,5.503-5.301,9.087c0.631,0.757-0.252,2.171,0.757,2.776
			c-3.08-0.53-6.866-1.489-7.825-5.048c-1.136-4.317,1.489-8.381,4.543-10.603c0.379-1.187,2.348-1.59,2.02-2.524
			c-4.064,1.363-7.75,5.982-8.33,10.35c0.101,1.111-0.303,2.449,0.505,3.281c-1.338-0.378-2.549-2.146-3.029-3.533
			c-0.555-6.613,3.862-12.47,9.592-15.146c4.493-1.591,10.854-1.691,14.389,2.02h0.504c0.455,1.06,1.565,1.615,2.524,2.019
			c0.454-1.388-1.843-2.523-2.524-3.533c2.045-0.581,3.08,2.044,4.796,1.515c-0.328-0.783-1.187-1.338-1.767-2.02
			c0.353,0.101,0.505-0.328,0.757-0.505c0.051-0.354-0.581-0.732,0-1.01c-0.303-0.151-0.252-0.479-0.252-0.758h0.757
			c-0.303,0.858-0.581,2.322,0.252,3.029c1.615-0.858,0.682-3.029,2.02-3.786c-0.454,1.11-1.313,2.676-0.253,3.786
			c0.556-0.227,0.96-0.959,1.263-1.515c0.252,0.43,0.227,0.959,0.757,1.263c1.237-0.833,0.808-2.373,1.263-3.534l-0.505-0.505
			l-0.758,0.757v-1.01c4.519-1.615,5.049-7.572,9.845-9.087c0.151-0.479-0.227-0.707-0.505-1.01
			c-0.404,0.126-0.782,0.328-1.262,0.253l2.02-1.768c-0.43-0.757-1.54-0.505-0.758-1.515c-0.177-0.782,0.984-0.505,1.263-1.262
			c-0.606-0.758-1.136-0.505-1.263-1.515l1.768-1.263c-0.606-0.555-1.515-1.085-2.272-0.504c-0.631-1.515,4.923-2.247,0.758-2.524
			l-1.768,0.252c1.061-1.061,3.231-0.959,4.292-2.02l-0.253-0.252h2.02c-0.354-0.102-0.505,0.328-0.758,0.505v0.252l4.039,1.01
			c-0.075-0.126-1.515,0.127-2.02,0.758c1.666,0.883,3.308,1.842,5.049,2.523c-0.808-0.277-1.54-0.655-2.524-0.504l-0.757,0.757
			c1.034,1.136,2.726,1.792,4.039,2.776c-0.833-0.126-2.121-0.682-2.777,0.253c1.212,1.969,3.534,2.348,5.301,3.533
			c0.454-0.176,0.177-0.681,0.253-1.01c-0.177-0.252-0.606-0.403-0.505-0.757c0.303,0.278,0.53,0.656,1.01,0.505
			c0.429-0.354,0.303-1.136,0-1.515l-0.758-0.757c0.935,0.227,1.086,1.54,2.02,1.01c0.051-0.632-0.429-1.086-0.252-1.768
			c-0.025,0.455,0.505,0.682,0.757,1.01c0.228,0.076,0.354-0.126,0.505-0.252v-0.758c0.606,1.212,0.732,2.827,2.02,3.534l0.505-0.505
			c-0.808-2.448,0.682-6.058-1.262-7.825c-1.313,0.479-0.556,1.817-0.758,2.776c-3.888-5.503-10.046-8.431-16.912-7.067
			c3.685-3.055,8.658-6.639,11.864-11.107c0.808,0.581,1.968,0.581,2.776,0l1.767-2.02l-0.505-0.504
			c-0.707,0.58-1.54,1.943-2.776,1.767c0.126-1.641,1.615-2.752,2.02-4.291l-0.505-0.505c-7.169,10.602-17.519,17.216-28.02,22.466
			c-2.853,4.595-6.134,8.582-10.602,11.611c-1.565,0.53-3.054,1.161-4.796,1.263l-4.292-0.253c2.322-0.556,4.417-1.641,6.311-3.281
			l-0.505-0.505c-3.938,2.322-9.895,4.24-14.136,1.262c-1.843-1.085-3.711-3.079-3.282-5.553c3.635,1.313,7.497,0.883,10.854-0.758
			l1.262-1.262c-1.01-0.884-2.348,0.505-3.534,0.757c-3.584,1.035-7.774,0.505-10.602-1.767c-1.515-1.389-1.818-3.609-1.262-5.554
			c1.035-3.079,4.316-3.912,6.815-5.049c3.988,0.834,7.901-0.024,10.602-3.028c-0.53-1.263-1.161,0.227-1.767,0.252
			c-2.676,1.515-6.109,1.919-8.835,0.253c-1.54-1.439-1.691-3.434-1.01-5.302c0.884-2.902,4.039-4.67,6.563-5.806
			c5.478-2.322,6.589,4.267,11.612,3.029c3.231,0.379,2.095,6.967,6.311,4.544c3.357-1.969,7.168-2.853,10.349-5.301
			c3.66-1.919,7.775-4.948,9.846-8.583l-0.505-0.505l-2.272,2.02c-0.303-1.262,0.581-2.322,0.253-3.281
			c-0.783,0.656-1.616,1.742-2.02,2.776c0.53,0.404-0.025,1.237,0.757,1.515c-1.262,1.01-2.02,1.515-3.281,2.524
			c-0.126-2.095-0.631-4.039-1.515-5.806v-1.01c3.761-0.354,6.336-4.064,7.32-7.32c0-2.751-0.757-5.2-2.271-7.32
			c1.136,0.883,1.867-0.682,3.029-0.505c4.745-3.18,8.657-8.355,7.319-14.388c0.505,0.682,1.01-0.177,1.516-0.252
			c0.605-0.782,0.983-1.817,0.504-2.776l-1.515-1.515c-1.287,0.858,2.121,2.929-0.505,3.029c-0.504-0.429-0.908-1.11-1.514-1.262
			c-0.127,3.534,0.504,8.027-1.515,11.107c-1.464,2.701-3.812,3.812-6.311,5.048c-0.884-1.313-2.524-2.978-4.292-3.281
			c-2.221-1.893-5.704-0.757-8.077,0c-2.625,0.631-4.746,4.014-7.825,2.02c-0.808-0.581-1.767-0.833-2.524-1.515
			c1.313,0.303,3.357-1.313,4.796-2.524c0.253-0.757,0.505-1.514,0.757-2.272c6.26,2.474,13.101,0.303,17.67-4.291
			c3.205-2.575,3.559-6.311,5.048-9.592c-0.984-2.398,1.919-2.954,3.029-4.039c2.6-0.833,5.049-0.555,7.825-0.252
			c0.454,0.959,1.464,0.581,2.02,1.262c2.474,2.247,2.701,6.058,1.767,9.088c-1.034,2.373-3.812,1.59-5.553,2.776
			c0.605,0.707,1.515,0.682,2.271,1.01c0.076,0.227-0.126,0.354-0.252,0.505c-0.732,0.151-1.212-0.227-1.768-0.505l-0.505,0.505
			c0.858,0.707,1.868,1.817,3.029,1.01c0.328-0.505,1.212-0.783,1.01-1.515l-0.505-0.505c2.751-0.606,4.114-3.584,4.544-6.058
			c-0.732-1.994,0.833-3.988-1.515-5.301v-0.505l3.029,2.777c1.262-0.783-0.228-1.666-0.253-2.524
			c-0.808-1.211-2.02-2.474-3.534-2.524c-1.262,0.53,0.228,1.161,0.253,1.767c-2.373-2.6-6.261-4.468-10.35-3.281
			c-1.515,0.378-2.853,1.136-4.039,2.271c0.151-6.336-2.095-12.369-6.311-16.913c0.025-0.581-0.126-1.211,0.505-1.515
			c1.212-0.176,2.575,1.313,3.281,0.253c-1.514-4.948-5.149-9.037-9.34-12.874c-2.095-2.146-4.14-2.853-6.311-4.796l-4.039-1.767
			C307.531,309.792,311.898,310.801,315.812,312.947L315.812,312.947z"/>
		<path fill-rule="evenodd" clip-rule="evenodd" fill="#FFFFFF" d="M316.316,326.578c0.378-0.505,0.378-1.515,0-2.02
			c-1.793-3.382-4.443-6.639-7.32-9.34c4.67,2.827,8.582,7.522,11.106,12.369c-1.515-0.252-1.969,1.085-2.776,2.019v0.253
			c-4.216-3.08-11.233-3.862-15.903-1.262c-0.883,0.682-2.095,0.581-2.776,1.767c-1.817-1.085-1.742-2.979-3.029-4.292
			c0.656,0.858,1.742,2.549,2.777,2.272c-0.278-1.641-1.515-2.878-1.767-4.544c-0.505-1.438-1.54-2.65-1.515-4.291
			c1.288,1.338,1.565,3.534,3.534,4.796c0.277,1.54,2.146,1.767,2.524,3.282c0.808-0.883-0.329-2.196-0.505-3.282
			c-1.59-1.868-1.994-4.215-3.029-6.311c2.045,2.549,4.872,5.882,7.068,8.583c0.959-1.085-0.707-1.691-0.505-2.777
			c-1.06-2.776-2.853-5.225-4.291-7.825h0.504l9.34,10.097c0.884-0.53-0.177-1.515-0.252-2.272c-2.348-3.508-4.342-6.512-7.068-9.845
			C307.658,317.238,312.227,322.16,316.316,326.578L316.316,326.578z"/>
		<path fill-rule="evenodd" clip-rule="evenodd" fill="#FFFFFF" d="M291.326,319.005c0.959,2.701,0.959,5.831,3.029,8.078
			c-6.26-3.66-12.369-8.457-20.194-7.573C279.26,317.818,286.075,317.289,291.326,319.005L291.326,319.005z"/>
		<path fill-rule="evenodd" clip-rule="evenodd" fill="#FFFFFF" d="M290.064,328.092l0.252-0.252
			c-1.489-1.615-3.08-2.954-4.796-4.039c2.297,0.984,4.594,1.995,6.563,3.787c0.984-0.025,1.414,1.288,2.272,1.514
			c-5.528-0.58-9.819,2.424-13.378,6.059c-3.256-0.757-6.437-2.272-8.835-4.544c2.474,1.59,5.048,2.928,7.825,3.787l0.505-0.505
			c-2.701-3.332-6.387-4.241-9.087-7.573c-0.126-0.151-0.328-0.278-0.252-0.505c4.014,1.439,7.093,5.125,11.106,6.563l0.505-0.504
			c-2.928-3.08-5.78-5.756-9.339-7.826c3.887,1.868,8.002,3.231,11.611,5.806l0.505-0.505c-2.297-3.206-5.629-4.998-8.835-6.563
			C281.456,323.801,285.924,325.568,290.064,328.092L290.064,328.092z"/>
		<path fill-rule="evenodd" clip-rule="evenodd" fill="#FFFFFF" d="M320.103,335.413c2.575,4.695,3.609,10.93,2.02,16.408
			c-4.216-4.064-9.542-5.402-14.641-7.32c-4.721-0.757-10.577-1.894-15.146,0c1.085-6.235,4.316-12.697,10.854-14.894
			C309.602,328.143,317.099,329.279,320.103,335.413L320.103,335.413z"/>
		<path fill-rule="evenodd" clip-rule="evenodd" fill="#FFFFFF" d="M333.986,331.121c-1.061-0.782-2.348-1.01-3.534-1.515
			C331.841,329.582,332.8,330.616,333.986,331.121L333.986,331.121z"/>
		<path fill-rule="evenodd" clip-rule="evenodd" fill="#FFFFFF" d="M296.879,331.626c-1.288,1.237-2.095,3.13-3.534,4.543
			c-1.009,3.004-2.751,5.68-2.777,9.087c-1.59,0.303-2.852,1.338-4.291,2.02c-2.903,2.07-5.654,5.099-8.078,7.825
			c-0.934-4.19-0.631-10.198,1.262-14.388c1.792-5.579,6.866-8.911,12.369-9.845C293.85,330.692,295.188,330.793,296.879,331.626
			L296.879,331.626z"/>
		<path fill-rule="evenodd" clip-rule="evenodd" d="M333.229,338.946c0.632,0.505,0.884,1.515,0.758,2.02
			c-1.54-0.328-2.752-2.196-4.291-1.767c0.656,1.11,2.17,1.186,2.271,2.524c-1.54-0.48-3.711-0.531-4.291-2.272
			c0.504-1.313,1.338,0.429,2.02-0.505c-0.328-0.58-1.691-1.06-1.011-1.767C330.755,336.448,331.715,338.341,333.229,338.946
			L333.229,338.946z"/>
		<path fill-rule="evenodd" clip-rule="evenodd" d="M329.695,342.228v0.505c-0.682-0.53-1.818,0.101-2.272-1.009
			C327.827,340.688,329.215,341.42,329.695,342.228L329.695,342.228z"/>
		<path fill-rule="evenodd" clip-rule="evenodd" fill="#FFFFFF" d="M275.675,346.52c0-1.187,0.909-1.994,1.262-3.029
			C276.508,344.5,276.862,345.813,275.675,346.52L275.675,346.52z"/>
		<path fill-rule="evenodd" clip-rule="evenodd" fill="#FFFFFF" d="M347.112,348.034l-1.515-3.029
			C345.825,346.115,347.138,346.797,347.112,348.034L347.112,348.034z"/>
		<path fill-rule="evenodd" clip-rule="evenodd" fill="#FFFFFF" d="M311.52,347.529c3.636,1.464,7.296,2.903,10.35,5.806
			c-1.388,4.519-4.72,9.314-9.592,10.602c-4.897,1.313-11.132,1.313-14.641-3.029c-3.584-4.165-5.856-8.86-5.554-14.641
			C298.394,344.045,305.512,345.964,311.52,347.529L311.52,347.529z"/>
		<path fill-rule="evenodd" clip-rule="evenodd" d="M345.346,350.811v1.01c-1.894-0.959-1.793-3.054-3.787-4.292
			c0.354-1.085-1.893-0.883-0.757-2.019C343.301,345.989,344.639,348.716,345.346,350.811L345.346,350.811z"/>
		<path fill-rule="evenodd" clip-rule="evenodd" fill="#FFFFFF" d="M290.316,347.024c0.429,3.357,0.378,6.941,2.524,9.592
			c0.202,1.767,1.918,3.13,3.029,4.291c-5.2-1.464-7.219,4.67-12.369,3.282c0.126-0.354,0.176-0.732,0.504-1.01
			c-0.934-1.439-3.231-0.177-3.786-2.02c-0.126-2.02-3.711-4.645-0.252-6.059C283.046,352.022,286.151,348.539,290.316,347.024
			L290.316,347.024z"/>
		<path fill-rule="evenodd" clip-rule="evenodd" d="M333.229,348.539c-0.075,0.53-0.682,0.833-1.01,1.262h-0.504
			C331.613,348.968,332.27,347.655,333.229,348.539L333.229,348.539z"/>
		<path fill-rule="evenodd" clip-rule="evenodd" fill="#FFFFFF" d="M275.17,351.063c0.025-0.202,1.01-1.54,1.01-2.524
			C276.584,349.7,275.549,350.23,275.17,351.063L275.17,351.063z"/>
		<path fill-rule="evenodd" clip-rule="evenodd" d="M338.277,351.82c-0.429,1.136-1.187,0-1.767,0
			C336.99,351.315,338.126,350.558,338.277,351.82L338.277,351.82z"/>
		<path fill-rule="evenodd" clip-rule="evenodd" fill="#FFFFFF" d="M276.685,355.859l-1.767-0.253
			c0.883-0.833,0.984-1.968,1.262-3.029C275.979,353.84,276.508,354.774,276.685,355.859L276.685,355.859z"/>
		<path fill-rule="evenodd" clip-rule="evenodd" fill="#FFFFFF" d="M274.161,355.859c-0.378-0.051-0.555,0.429-1.009,0.252
			c0.656-0.505,0.833-1.211,0.757-2.019C273.984,354.673,273.707,355.43,274.161,355.859L274.161,355.859z"/>
		<polygon fill-rule="evenodd" clip-rule="evenodd" fill="#FFFFFF" points="270.879,357.626 271.637,355.354 272.394,356.111 
			270.879,357.626 	"/>
		<path fill-rule="evenodd" clip-rule="evenodd" d="M337.268,356.617c0.076,0.53-0.051,0.959-0.505,1.262
			c-0.252-0.505-1.54-0.909-0.757-1.514C336.435,356.439,337.016,356.162,337.268,356.617L337.268,356.617z"/>
		<path fill-rule="evenodd" clip-rule="evenodd" fill="#FFFFFF" d="M277.442,358.383c-0.051,1.843,1.515,3.029,2.272,4.544
			c-1.59,1.009-3.584,1.641-4.796,3.029h-1.01c0-0.732,1.035-1.363,0.505-2.02c-0.884,0.051-1.616,1.061-2.02,1.768
			c0.076,0.782,1.464,1.009,1.01,2.019c-0.959,0.378-1.187,1.515-1.767,2.272c-0.354-0.454-1.01-0.177-1.515-0.252
			c-1.843-1.817-1.817-5.048-1.01-7.32c0.858-2.272,2.827-4.544,5.301-5.049C275.6,357.298,276.963,357.323,277.442,358.383
			L277.442,358.383z"/>
		<polygon fill-rule="evenodd" clip-rule="evenodd" fill="#FFFFFF" points="268.86,359.898 269.112,358.383 269.112,359.646 
			268.86,359.898 	"/>
		<path fill-rule="evenodd" clip-rule="evenodd" d="M274.414,358.636l-0.505,1.262c-0.631-0.277-0.657-1.11-0.252-1.515
			C273.934,358.383,274.262,358.308,274.414,358.636L274.414,358.636z"/>
		<path fill-rule="evenodd" clip-rule="evenodd" d="M345.851,366.461l-0.505,0.505c-0.834-1.06-0.556-3.357-0.253-4.796
			c-1.085-0.808,0.328-1.843,0.505-2.777C347.188,361.438,346.91,364.265,345.851,366.461L345.851,366.461z"/>
		<path fill-rule="evenodd" clip-rule="evenodd" d="M344.336,362.927c-0.328,1.085,0.126,2.524-1.01,3.282l-0.758-2.272l-0.757,1.01
			c-0.556-1.11-1.086-2.524-0.505-3.786l1.01,1.01l0.757-1.515C344.26,360.882,343.906,362.17,344.336,362.927L344.336,362.927z"/>
		<path fill-rule="evenodd" clip-rule="evenodd" d="M271.132,362.422c-0.404,0.808-0.782,0.177-1.262,0
			C269.92,361.337,270.677,361.816,271.132,362.422L271.132,362.422z"/>
		<path fill-rule="evenodd" clip-rule="evenodd" d="M340.549,362.675c-0.025,0.555,0.127,1.187-0.505,1.515
			c-0.631-0.581-0.479-1.464-0.505-2.272C339.867,362.17,340.6,362.043,340.549,362.675L340.549,362.675z"/>
		<path fill-rule="evenodd" clip-rule="evenodd" fill="#FFFFFF" d="M299.909,364.694c0.05,1.161,0.076,2.322-1.01,3.029
			c-1.868,0.909-4.014,1.136-6.311,1.01c-1.388-1.464-2.246-2.928-4.039-3.787c2.322-2.271,5.579-3.029,8.835-2.271
			C298.369,363.028,299.101,363.912,299.909,364.694L299.909,364.694z"/>
		<path fill-rule="evenodd" clip-rule="evenodd" fill="#FFFFFF" d="M281.481,364.189c-0.328,1.186-2.196,2.347-1.01,3.534
			c2.297-2.221,5.553-2.196,8.33-1.01c1.817,0.732,2.196,2.954,3.029,4.544c0.328,2.6-1.363,4.67-0.758,7.068
			c1.439-0.732,1.338-2.524,2.02-3.786c1.414-0.682,3.408-0.783,4.796-0.757c2.02-0.682,4.039,0.177,6.058,0.252
			c-2.02-0.05-3.635,0.833-5.048,2.272c1.262,0.707,2.852,0.682,4.291,1.01c0.959,0.858,2.474,0.303,3.282,1.515
			c-1.616-0.05-3.307-1.111-4.544,0.505c0.631,1.414,2.474,1.01,3.282,2.524c1.489,0.277,1.918,2.12,3.029,2.776
			c1.969,3.913,4.746,7.472,4.291,12.369c-1.489,1.287-3.307,1.741-4.796,3.029c-1.515-1.742-4.266-1.288-6.311-1.01
			c-1.363,0.227-2.297,1.539-3.786,1.515c-0.707-1.843-2.65-1.894-4.292-2.02c-1.868,1.061-2.474-1.894-4.291-2.272
			c-2.676-1.667-5.677-1.183-8.583,0.504c-3.408,2.853-6.74,6.79-5.049,11.359l1.515,1.515c-3.104,0.076-5.376,2.727-7.32,5.049
			c-0.884,2.196-0.631,5.175,0.757,7.067c0.783,0.833,1.666,1.389,2.524,2.02c-0.707,2.096,0.101,4.19,1.262,5.806
			c1.363,1.161,3.029,2.676,5.049,2.777c1.641,1.716,4.847-0.328,6.311,1.767c2.121,0.379,4.695,0.379,6.816,0
			c0.505,1.161,2.196,2.625,0.505,3.786c-1.162,2.398-4.039,0.632-5.806,1.515c-3.004,1.389-6.159,2.954-8.33,5.807
			c-2.474,0.05-4.569-0.909-6.563-2.02c0.479-1.994,1.489-3.762,3.029-5.302c-0.303-0.529-0.833-0.58-1.262-0.252
			c-2.979,2.424-3.509,5.856-4.544,9.087c-0.656,0.984-0.757,2.196-1.767,3.029c-0.05,1.439-1.843,2.348-2.524,3.282
			c-2.828,2.397-7.245,1.767-10.854,1.515c-4.67-1.54-9.592-5.654-10.854-10.603c-0.177-1.59-0.682-3.357-0.505-4.796
			c-0.025-3.104-0.353-6.992,2.272-9.34c3.559-3.585,9.592-3.736,14.641-2.776c1.085-0.581,2.802-0.707,3.029-2.272
			c-0.934-0.505-1.691,0.884-2.777,0.758c-0.53-2.02,3.08-0.959,1.515-2.777c-1.211,0.328-2.676,1.187-3.029,2.524l0.252,0.253
			c-1.716-0.228-3.509-0.354-5.048-1.01c-1.616-3.988-2.777-9.416,0.252-13.127c2.625-3.054,6.336-3.508,10.097-3.786
			c1.767,1.742,4.771,1.287,7.068,1.01c2.448-1.01,4.442-3.56,4.291-6.311c-3.155-2.953,2.6-3.433,2.524-6.058
			c0.277-2.222,0.303-4.266-1.515-5.806c2.02-0.858,2.07-3.003,3.029-4.543c-0.808-2.449-2.07-5.352-4.796-6.311
			c-1.11-0.479-3.104,0.126-3.029-1.767c-0.682-4.417,1.691-8.658,4.796-11.359C278.124,365.729,279.563,364.366,281.481,364.189
			L281.481,364.189z"/>
		<path fill-rule="evenodd" clip-rule="evenodd" d="M270.627,366.713c0.101,0.354-0.328,0.505-0.505,0.757
			c-0.227,0.076-0.354-0.126-0.505-0.252C269.289,366.512,270.324,366.209,270.627,366.713L270.627,366.713z"/>
		<path fill-rule="evenodd" clip-rule="evenodd" d="M288.297,371.762c0.757,3.433-1.136,6.386-2.272,9.34
			c-0.757,1.161-1.313-0.252-2.02-0.505l-1.262-2.019c-1.01,1.085,1.01,2.954-0.757,3.282c-2.323,0.252-4.014-1.54-5.301-3.282
			c-0.757-1.439-0.757-2.853,0-4.292c1.288-0.53,0.757-2.271,2.272-2.271C281.33,369.364,286.176,368.405,288.297,371.762
			L288.297,371.762z"/>
		<path fill-rule="evenodd" clip-rule="evenodd" fill="#FFFFFF" d="M317.073,372.772c-0.757-0.152-1.313,0.177-1.767,0.757
			c2.726,2.575,3.206,6.411,2.524,10.097c-1.187,2.146-3.383,4.013-5.806,4.291c-0.076-0.606-0.935-0.909-1.01-1.515
			c1.893-1.262,4.316-2.979,4.038-5.806c0.126-2.019-0.555-3.71-2.02-5.048c-2.701-1.717-6.032-1.187-8.582,0.504l-0.757-0.252
			c0.126-0.959,2.524-0.05,3.282-1.262c-0.53-1.237-2.121-0.909-3.029-1.767c1.969-1.515,5.578-3.408,9.087-2.272
			C314.373,371.257,315.938,371.484,317.073,372.772L317.073,372.772z"/>
		<polygon fill-rule="evenodd" clip-rule="evenodd" fill="#FFFFFF" points="269.617,371.762 269.365,370.752 269.617,370.752 
			269.617,371.762 	"/>
		<path fill-rule="evenodd" clip-rule="evenodd" fill="#FFFFFF" d="M287.035,371.762c0.657,3.004-0.959,5.705-2.02,8.33
			c-2.221-0.707-0.378-3.105-2.019-4.039c-1.313,1.313-2.146,2.802-1.768,4.796c-1.514-1.085-4.266-1.616-3.534-4.292
			c-0.53-3.635,3.66-4.417,5.806-5.806C284.839,370.702,286.176,370.677,287.035,371.762L287.035,371.762z"/>
		<path fill-rule="evenodd" clip-rule="evenodd" fill="#FFFFFF" d="M296.627,372.267c-1.363-0.429-2.095,0.707-3.282,0.757
			l1.515-2.271L296.627,372.267L296.627,372.267z"/>
		<path fill-rule="evenodd" clip-rule="evenodd" d="M337.772,372.267c-0.303,0.151-0.253,0.479-0.253,0.757l0.253,0.253
			c0.505-0.429,0.404-1.767,1.515-1.262c1.136,0.858-1.136,2.398,0,3.029c0.202-1.035,1.389-1.893,2.02-2.524
			c1.11,0.555,0,1.439,0.252,2.271c-1.489,1.439-2.852,3.155-4.796,3.534c-0.605-0.858,1.11-1.414,1.262-2.272
			c-0.655-0.353-1.489,0.404-2.271,0.505c0.782-0.909,1.489-2.121,1.515-3.029l-1.262,1.01c-0.328-0.808,0.505-1.767,1.01-2.524
			C337.293,372.015,337.621,371.938,337.772,372.267L337.772,372.267z"/>
		<path fill-rule="evenodd" clip-rule="evenodd" fill="#FFFFFF" d="M308.996,376.053c0.605,0.076,2.02-0.202,2.776,0.252
			c1.262,0.884,1.994,2.423,2.02,4.039c-0.025,2.044-1.439,3.963-3.281,4.796c-2.045-1.792-2.929-4.089-5.554-5.301
			c1.414-0.379,2.853,0.757,3.786,0c-0.731-1.035-1.792-2.398-3.029-2.777C306.27,375.978,308.062,376.003,308.996,376.053
			L308.996,376.053z"/>
		<path fill-rule="evenodd" clip-rule="evenodd" fill="#FFFFFF" d="M277.442,383.878c0.177,2.07-0.051,4.014-1.767,5.301
			c-2.044-0.328-3.534-1.969-5.806-1.767c-1.868,0.227-3.635,0.732-5.301,1.514c-0.505-1.59-0.253-3.508,0.757-4.796
			c1.868-3.181,6.059-3.382,9.088-2.776C275.701,381.531,276.735,382.869,277.442,383.878L277.442,383.878z"/>
		<path fill-rule="evenodd" clip-rule="evenodd" fill="#FFFFFF" d="M275.17,391.199c0.808,1.363,2.171,2.802,1.262,4.543
			c-0.808,1.288-1.211,2.499-2.776,3.029c-2.171-2.726-5.579-3.206-8.835-2.524c-1.086,0.581-2.575,0.807-3.282,1.767
			c-0.833-0.479-0.555-2.171-0.252-3.029c0.656-3.282,4.241-4.872,7.068-5.554C270.955,389.255,273.378,389.482,275.17,391.199
			L275.17,391.199z"/>
		<path fill-rule="evenodd" clip-rule="evenodd" d="M302.433,394.48c0.101,1.918-1.211,3.66-2.524,4.544
			c-1.262,0.354-1.843-0.656-2.272-1.515c-0.631-2.272,0.909-4.292,2.272-6.059C301.246,391.047,302.66,393.016,302.433,394.48
			L302.433,394.48z"/>
		<path fill-rule="evenodd" clip-rule="evenodd" d="M309.501,394.228c0.303,1.716-0.404,3.054-1.263,4.292
			c-0.858,0.605-1.893-0.455-2.271-1.263c-0.757-1.742-0.682-3.433-0.253-5.301C307.733,389.685,308.996,392.713,309.501,394.228
			L309.501,394.228z"/>
		<path fill-rule="evenodd" clip-rule="evenodd" d="M344.841,395.238c0.378,0.858,0.378,2.17,0,3.029
			c-1.894-1.59-1.641-4.089-3.282-5.806c-0.075-0.328,0.202-0.833-0.252-1.01c0.354-0.429,1.136-0.303,1.515,0L344.841,395.238
			L344.841,395.238z"/>
		<path fill-rule="evenodd" clip-rule="evenodd" d="M341.559,393.976c0,1.54,1.768,2.65,0.758,4.291
			c-1.313-1.615-2.601-3.534-2.777-5.301C340.423,392.764,341.004,393.37,341.559,393.976L341.559,393.976z"/>
		<path fill-rule="evenodd" clip-rule="evenodd" d="M339.539,395.995l0.253,1.767l-2.02-1.767c-0.303,0.151-0.253,0.479-0.253,0.757
			l0.505,0.505l-0.252,0.253c-0.277-0.682-1.792-0.682-1.01-1.515c0.277,0,0.606-0.076,0.757,0.252
			c0.556-0.505-1.186-2.095,0.505-2.02L339.539,395.995L339.539,395.995z"/>
		<path fill-rule="evenodd" clip-rule="evenodd" fill="#FFFFFF" d="M273.404,400.791c0.404,1.414,0.378,3.256-0.252,4.544
			c-3.231,3.356-7.75-0.076-11.612,1.01c-0.783-0.354-1.035-0.707-1.262-1.515c0.228-2.322,0.202-4.947,2.777-6.059
			c1.868-1.236,4.594-1.136,6.815-0.757C271.258,398.393,272.596,399.479,273.404,400.791L273.404,400.791z"/>
		<path fill-rule="evenodd" clip-rule="evenodd" fill="#FFFFFF" d="M306.219,400.791c-1.767,0.605-3.735,2.271-5.553,1.262
			c0.581-1.337,2.524-1.564,4.039-1.767C305.083,400.766,305.866,400.286,306.219,400.791L306.219,400.791z"/>
		<path fill-rule="evenodd" clip-rule="evenodd" d="M352.161,404.83c2.676,2.322,3.988,5.226,4.796,8.33l-0.252,0.252
			c-1.818-1.11-2.096-3.307-3.534-4.796c-0.505,1.54,1.515,2.65,1.515,4.291c-0.076,0.328,0.201,0.833-0.253,1.01
			c-1.59-1.994-3.206-4.442-5.049-6.563c0-0.278,0.076-0.606-0.252-0.758c0.53-0.58,1.161,0.051,1.767,0
			c0.404,0.858,1.338,1.515,2.02,2.272l0.253-0.253c-0.657-1.615-2.651-2.701-2.777-4.544
			C351.202,403.795,351.354,405.107,352.161,404.83L352.161,404.83z"/>
		<path fill-rule="evenodd" clip-rule="evenodd" d="M350.898,410.383c0.328,1.339,1.439,2.701,1.01,4.039
			c-1.438-1.943-2.852-3.861-4.291-5.806C348.854,406.824,350.091,409.626,350.898,410.383L350.898,410.383z"/>
		<path fill-rule="evenodd" clip-rule="evenodd" d="M348.879,411.646c0.178,0.808,0.758,1.767,0.253,2.524
			c-1.464-1.287-2.878-2.929-2.776-4.544C347.466,409.752,348.248,410.661,348.879,411.646L348.879,411.646z"/>
		<path fill-rule="evenodd" clip-rule="evenodd" d="M347.364,414.17l-0.252,0.252l-2.776-2.776c0.05-0.556,0.832-1.085,1.262-0.505
			C346.582,411.999,347.34,412.933,347.364,414.17L347.364,414.17z"/>
		<path fill-rule="evenodd" clip-rule="evenodd" fill="#FFFFFF" d="M250.18,416.694c-0.177,2.6,0.051,5.68,1.767,7.825v0.505
			c-3.761,0.479-7.27,2.574-9.34,6.058c-0.984,2.752-2.322,5.654-1.515,8.835c-4.468-0.959-6.285-6.134-7.825-9.845
			c-1.641-6.386-0.732-13.833,4.292-18.175c2.6-1.59,5.074,0.581,6.815,2.02C246.091,415.381,248.186,416.441,250.18,416.694
			L250.18,416.694z"/>
		<path fill-rule="evenodd" clip-rule="evenodd" d="M344.841,413.412c0,0.278,0.075,0.606-0.253,0.758
			c-0.479-0.177-0.858-0.631-1.262-1.01l0.252-0.758C344.108,412.479,344.411,413.084,344.841,413.412L344.841,413.412z"/>
		<path fill-rule="evenodd" clip-rule="evenodd" fill="#FFFFFF" d="M315.307,418.461c2.701,5.301-0.228,11.208-3.787,15.398
			c-3.104,3.609-8.405,4.518-13.125,3.281c-1.59-1.085-3.534-1.389-4.796-3.281c5.427-2.398,10.097-8.204,13.126-13.127
			c2.524-0.303,4.267-2.448,6.563-3.281C314.246,417.123,314.726,417.905,315.307,418.461L315.307,418.461z"/>
		<path fill-rule="evenodd" clip-rule="evenodd" d="M315.307,422.247c0.454,1.717-0.505,3.509-1.263,5.049
			c-2.196,3.383-5.503,6.74-9.339,8.33c-1.01,0.454-2.348,0.177-3.534,0.252c-0.884-0.58-0.984-1.464-1.262-2.271
			c0.454-2.12,1.337-4.316,2.776-5.806c0.479-1.817,2.12-2.726,3.282-4.039C308.238,421.742,313.11,417.83,315.307,422.247
			L315.307,422.247z"/>
		<path fill-rule="evenodd" clip-rule="evenodd" d="M353.676,427.801l-0.253,0.253c-0.707-1.768-0.682-3.862-1.01-5.807l0.253-1.262
			C354.508,422.626,354.483,425.681,353.676,427.801L353.676,427.801z"/>
		<path fill-rule="evenodd" clip-rule="evenodd" fill="#FFFFFF" d="M314.297,422.247c0.101,5.251-4.241,8.886-8.078,11.612
			c-1.414,1.01-3.458,1.236-5.048,1.01c-0.253-5.352,4.089-9.214,8.077-12.369C310.939,422.424,312.782,420.43,314.297,422.247
			L314.297,422.247z"/>
		<path fill-rule="evenodd" clip-rule="evenodd" d="M351.908,423.762c-0.177,1.187,0.43,2.676-0.505,3.534
			c-0.479-1.389-1.362-3.408-1.01-5.049C351.378,422.096,351.403,423.257,351.908,423.762L351.908,423.762z"/>
		<path fill-rule="evenodd" clip-rule="evenodd" d="M349.637,426.791l-0.253,0.253c-0.429-1.288-1.313-2.676-0.757-4.039
			C349.99,423.61,350.116,425.504,349.637,426.791L349.637,426.791z"/>
		<path fill-rule="evenodd" clip-rule="evenodd" d="M347.869,426.034l-0.252,0.252c0-0.731-1.035-1.363-0.505-2.02
			C347.743,424.469,347.996,425.276,347.869,426.034L347.869,426.034z"/>
		<path fill-rule="evenodd" clip-rule="evenodd" d="M331.715,428.811c-1.086,0.505-1.97-1.035-3.282-0.757
			c-0.682-0.278-0.682-1.237,0-1.516C329.871,426.488,331.159,427.826,331.715,428.811L331.715,428.811z"/>
		<path fill-rule="evenodd" clip-rule="evenodd" d="M330.957,430.072c-0.758,0.127-2.02-0.126-2.777-0.757
			C328.938,427.952,330.099,429.669,330.957,430.072L330.957,430.072z"/>
		<path fill-rule="evenodd" clip-rule="evenodd" d="M318.588,431.082c0.328,0.858-0.707,0.606-1.01,1.01
			c-0.858,0.984-1.792,1.742-3.029,1.768l-0.252-0.253C315.584,432.395,316.694,430.779,318.588,431.082L318.588,431.082z"/>
		<path fill-rule="evenodd" clip-rule="evenodd" d="M260.277,438.15c1.641,3.155,3.282,7.245,1.515,10.854
			c-0.934,1.54-2.449,2.65-4.291,2.524c-4.595-0.051-8.154-4.216-9.845-8.078c-1.489-1.641-1.263-4.014-1.768-6.059l0.758-3.028
			c1.59-2.096,4.114-2.727,6.563-2.02C255.834,433.632,258.384,435.626,260.277,438.15L260.277,438.15z"/>
		<path fill-rule="evenodd" clip-rule="evenodd" fill="#FFFFFF" d="M260.025,439.917c0.454,2.954,2.449,6.538,0.252,9.34
			c-1.54,1.691-3.71,1.086-5.553,0.505c-5.099-2.448-7.901-8.81-7.321-14.641c0.53-1.287,1.894-1.641,3.029-2.02
			C254.825,433.001,257.879,436.687,260.025,439.917L260.025,439.917z"/>
		<path fill-rule="evenodd" clip-rule="evenodd" d="M318.588,433.354c-0.656,0.682-1.287,1.388-2.271,1.262l-0.253-0.252
			C316.771,433.683,317.578,432.521,318.588,433.354L318.588,433.354z"/>
		<path fill-rule="evenodd" clip-rule="evenodd" d="M355.695,435.121c-0.354,2.575-2.07,4.796-3.787,6.563h-0.505
			c0.682-1.54,1.817-3.181,1.515-4.797c-0.58,1.565-1.767,3.105-2.776,4.292c-0.43-1.263,0.682-2.524,1.01-3.787
			c-0.303-1.211,0.454-1.943,1.01-2.776c0.706,0.682,0.682,1.691,1.01,2.524l1.515-3.281
			C355.72,433.531,355.19,434.768,355.695,435.121L355.695,435.121z"/>
		<path fill-rule="evenodd" clip-rule="evenodd" d="M347.364,436.636c0.379,1.187-0.58,1.792-1.262,2.524
			c-0.505-1.263-0.252-2.853,0.757-3.787C347.643,435.323,347.264,436.182,347.364,436.636L347.364,436.636z"/>
		<path fill-rule="evenodd" clip-rule="evenodd" d="M349.889,435.878c0.631,1.818-1.01,2.701-1.515,4.039h-0.505
			c-0.479-1.893,0.758-3.054,1.263-4.544C349.485,435.272,349.637,435.702,349.889,435.878L349.889,435.878z"/>
		<path fill-rule="evenodd" clip-rule="evenodd" d="M345.346,437.646l-0.758,0.757c-0.505-0.857-0.177-1.994,0.253-2.776
			C345.774,435.979,345.168,436.964,345.346,437.646L345.346,437.646z"/>
		<path fill-rule="evenodd" clip-rule="evenodd" fill="#FFFFFF" d="M299.909,440.675c-1.338,1.085-2.701-0.833-4.039-1.263
			l-2.272-0.252l1.515-2.02C296.602,438.579,300.085,437.873,299.909,440.675L299.909,440.675z"/>
		<polygon fill-rule="evenodd" clip-rule="evenodd" fill="#FFFFFF" points="302.685,441.18 302.181,439.412 302.685,440.675 
			302.685,441.18 	"/>
		<path fill-rule="evenodd" clip-rule="evenodd" d="M310.763,441.18l-0.505,0.505c-0.682-0.581,0.177-1.187,0.253-1.768
			C310.965,439.968,310.688,440.75,310.763,441.18L310.763,441.18z"/>
		<path fill-rule="evenodd" clip-rule="evenodd" fill="#FFFFFF" d="M277.442,446.732c-2.095,2.222-3.206,5.302-3.282,8.583
			c-2.271-0.303-4.291-1.237-6.058-2.776c-0.101-1.591,1.54-2.449,2.02-3.787c-0.025-1.641,1.01-2.853,1.515-4.291
			C273.252,445.976,275.196,446.732,277.442,446.732L277.442,446.732z"/>
		<path fill-rule="evenodd" clip-rule="evenodd" d="M340.802,449.005l-2.02,2.02c-0.429-1.01,0.682-2.02,1.01-3.029l0.757-0.758
			C341.357,447.541,341.13,448.551,340.802,449.005L340.802,449.005z"/>
		<path fill-rule="evenodd" clip-rule="evenodd" fill="#FFFFFF" d="M361.501,447.237c-0.102,0.758,0.782,0.253,1.009,0.758h1.01
			c-0.252,0.328-0.782,0.556-0.757,1.01c0.454,1.01,1.666,0.126,2.271,0.757l-1.01,1.01c0.404,0.53,0.909,0.783,1.515,0.758
			c-0.126,0.151-0.328,0.277-0.252,0.505c0.605,0.833,2.02,0.555,2.776,0.252l0.505-0.505l-0.252-0.252
			c0.833-0.707,1.313-1.414,2.524-0.758l0.505-0.505l-0.758-0.757c0.758,0.177,1.615,0.833,2.271,0.505
			c0.581,0.277-0.05,0.656,0,1.01c0.96,0.682,1.188,1.69,1.768,2.524c-0.43-0.328-0.959-0.278-1.263,0.252
			c0.581,0.909,0.758,1.994,1.01,3.029l-0.505-0.505c-0.883,1.136,0.328,2.676,1.01,3.786c0.354,0.102,0.505-0.328,0.758-0.505
			l-0.253-1.262c0.809,0.631,0.304,2.802,1.515,2.271v-0.757c0.479,0.227,0,1.514,1.01,1.514c0.53,1.263-0.883,1.035-1.01,2.02
			l-0.505,2.272l-0.505-0.505c-0.682,0.808-1.11,1.741-1.262,2.776c-0.228,0.076-0.354-0.126-0.505-0.252
			c-0.782,0.908-1.287,1.918-1.515,3.028c0.252,0.178,0.404,0.606,0.757,0.505l0.253-0.252c0,0.581-1.136,1.338,0,1.767
			c0.228,0.076,0.354-0.126,0.505-0.252c-0.429,0.58-0.479,1.061-0.253,1.767c-2.322,3.308-5.957,5.604-9.592,6.815
			c-7.018,1.717-15.752,2.323-22.466-0.505c0.429,0.076,1.01-0.201,1.262,0.253l0.253-0.253c-1.768-2.625-5.453-2.776-6.815-5.806
			c3.054,2.65,6.588,4.165,10.602,4.544c0.177-0.252,0.605-0.404,0.505-0.757c-1.591-0.834-3.357-1.313-4.796-2.524
			c-1.742-0.53-3.181-1.793-4.544-3.282c1.691,0.758,3.155,2.045,5.049,2.272c2.271,0.884,4.721,1.388,7.32,1.515l0.505-0.505
			c-3.383-2.146-7.371-2.777-10.603-5.302c2.803,0.379,4.998,2.298,8.078,2.02c1.11,0.304,3.055,0.581,3.786-0.252
			c-2.045-1.59-4.544-2.07-7.067-2.524c-1.414-0.656-2.601-1.817-4.292-1.767c3.963,0.58,8.078,0.808,11.864,1.767l0.505-0.505
			c-0.833-1.313-2.474-0.732-3.534-1.515c-2.701-1.59-6.361-0.934-9.087-2.524c3.812-0.227,8.607,1.54,12.874,1.263
			c-2.424-3.08-6.387-2.348-9.593-3.534h-1.01c3.686-0.126,7.22,0.126,10.603,0.757c0.126-0.151,0.328-0.277,0.252-0.505
			c-2.802-1.69-5.755-2.979-9.34-2.776v0.252h-1.01v-0.252c2.878-0.556,6.21,0.051,9.088-0.505c-0.632-1.338-2.196-1.564-3.534-1.767
			c-3.181-0.632-6.538-0.127-9.088,1.515c2.424-2.903,6.084-2.777,9.593-3.029l0.505-0.505c-1.565-2.146-5.023-1.262-7.068-0.758
			c-2.499,1.061-4.745,2.727-6.058,5.049c0.58-2.474,2.827-4.721,5.301-5.301c3.735-1.389,8.254-0.126,11.864,1.01
			c-0.304,0.328-0.758,0.328-1.01,0.757c0.631,1.035,1.69,1.01,2.524,1.515l-0.758,0.758c0.884,1.211,2.07,1.615,3.281,2.019
			c-0.555,0.026-1.187-0.126-1.514,0.505c-0.202,0.632,0.555,1.111,1.009,1.263h1.01l-1.01,1.01c0.707,0.884,1.843,0.682,2.777,1.01
			l0.505-0.505l-1.01-1.01c-0.303-0.025,0.782,0.227,1.01,0.757c0.808-0.403,0.177-0.782,0-1.262c0.479,0.151,0.707-0.228,1.01-0.505
			c-0.606-0.404-0.682-1.01-1.01-1.515c0.403,0.682,1.11,0.581,1.514,1.262c0.683-1.136,1.844,1.137,2.524,0l-4.038-3.786v-0.505
			c1.59-0.58,3.357-0.051,4.796,0.505c0.58-0.303,0-0.757-0.253-1.01c-0.605-1.187-1.842-0.833-2.776-1.262
			c-0.884,0.303-2.196,0.126-2.524,1.262c-2.448-1.187-4.543-3.155-7.32-3.533c-1.161-0.581-2.499-0.758-3.786-1.01
			c1.464-0.479,2.02-3.13,4.039-2.272l-0.253,0.253c0.328,0.808,1.161,0.403,1.768,0.505c-0.152,0.479,0.227,0.706,0.505,1.01
			l1.262-0.505c-0.303,0.151-0.252,0.479-0.252,0.757c0.403,1.01,1.11,0.177,1.514-0.252l1.01-1.01l-0.505-0.505
			c-0.354-0.177,1.894-0.556,0.758-1.515c0.429-0.253,0.959-0.228,1.262-0.758l-0.505-0.505c-0.328-0.252,1.061,0.025,1.263-0.757
			l-0.253-0.253H361.501L361.501,447.237z"/>
		<path fill-rule="evenodd" clip-rule="evenodd" d="M343.326,448.247c-0.682,1.54-1.389,2.954-3.029,3.787l-0.253-0.253
			c0.935-1.338,1.086-3.458,2.777-4.039L343.326,448.247L343.326,448.247z"/>
		<path fill-rule="evenodd" clip-rule="evenodd" d="M338.782,448.247c-0.328,0.43-0.303,1.212-1.01,1.263h-0.505
			C337.52,448.828,337.646,447.288,338.782,448.247L338.782,448.247z"/>
		<path fill-rule="evenodd" clip-rule="evenodd" fill="#FFFFFF" d="M337.268,456.072c-0.429,0.177-0.177,0.858-0.757,0.758
			C336.939,456.653,336.688,455.972,337.268,456.072L337.268,456.072z"/>
		<polygon fill-rule="evenodd" clip-rule="evenodd" fill="#FFFFFF" points="333.229,460.616 333.481,458.597 333.229,459.859 
			333.229,460.616 	"/>
		<polygon fill-rule="evenodd" clip-rule="evenodd" fill="#FFFFFF" points="330.957,472.228 331.209,471.218 331.209,472.228 
			330.957,472.228 	"/>
	</g>
</svg>
